<svg width="108.000000" height="32.000000" viewBox="0 0 108 32" fill="none" xmlns="http://www.w3.org/2000/svg" xmlns:xlink="http://www.w3.org/1999/xlink">
	<desc>
			Created with Pixso.
	</desc>
	<defs>
		<clipPath id="clip1_176">
			<rect width="108.000000" height="32.000000" fill="white" fill-opacity="0"/>
		</clipPath>
	</defs>
	<rect width="108.000000" height="32.000000" fill="#FFFFFF" fill-opacity="0"/>
	<g clip-path="url(#clip1_176)">
		<path d="M16.9529 15.0183C16.9245 11.5275 19.5335 9.8291 19.6528 9.75C18.1752 7.36389 15.885 7.03784 15.0802 7.01184C13.1567 6.78772 11.2909 8.28674 10.311 8.28674C9.31161 8.28674 7.8027 7.03357 6.17648 7.07031C4.08377 7.10608 2.12604 8.44812 1.05231 10.532C-1.1636 14.7811 0.489044 21.0254 2.61206 24.46C3.67404 26.1432 4.91498 28.0201 6.53928 27.9541C8.12836 27.8827 8.72192 26.8331 10.6396 26.8331C12.5396 26.8331 13.097 27.9541 14.7536 27.9119C16.459 27.8827 17.5328 26.2222 18.5576 24.5249C19.7849 22.598 20.2777 20.6982 20.2973 20.6008C20.2581 20.5856 16.9861 19.2014 16.9529 15.0183Z" fill="#FFFFFF" fill-opacity="1.000000" fill-rule="nonzero"/>
		<path d="M13.9102 5.06482C14.7704 3.89783 15.3591 2.31018 15.1957 0.698975C13.9505 0.758789 12.3934 1.63318 11.4967 2.77454C10.7034 3.7804 9.99466 5.42883 10.1778 6.97925C11.5764 7.09241 13.0125 6.21362 13.9102 5.06482Z" fill="#FFFFFF" fill-opacity="1.000000" fill-rule="nonzero"/>
		<path d="M40.0526 27.353L37.8119 27.353L36.5844 23.1832L32.3181 23.1832L31.1489 27.353L28.9673 27.353L33.1952 13.157L35.8059 13.157L40.0526 27.353ZM36.2144 21.4337L35.1044 17.7268C34.987 17.3481 34.766 16.4564 34.4424 15.0526L34.4029 15.0526C34.2726 15.6564 34.0645 16.5481 33.7793 17.7268L32.688 21.4337L36.2144 21.4337Z" fill="#FFFFFF" fill-opacity="1.000000" fill-rule="nonzero"/>
		<path d="M50.904 22.109C50.904 23.85 50.4669 25.2261 49.5917 26.2362C48.8083 27.1355 47.8345 27.5846 46.6732 27.5846C45.4191 27.5846 44.5173 27.1013 43.9697 26.1327L43.9697 31.5038L41.8661 31.5038L41.8661 20.4812C41.8661 19.3878 41.8394 18.2667 41.7881 17.1167L43.6382 17.1167L43.7556 18.7393L43.795 18.7393C44.4966 17.5167 45.5612 16.9055 46.9899 16.9055C48.1068 16.9055 49.0392 17.3823 49.7851 18.337C50.5301 19.2939 50.904 20.5505 50.904 22.109ZM48.761 22.1923C48.761 21.1959 48.5538 20.3745 48.1374 19.7271C47.6825 19.054 47.0718 18.7168 46.3061 18.7168C45.7871 18.7168 45.3155 18.9045 44.8942 19.2748C44.4719 19.6481 44.1956 20.1356 44.0664 20.7394C44.0013 21.021 43.9687 21.2504 43.9687 21.4316L43.9687 23.1395C43.9687 23.8831 44.1798 24.5114 44.6021 25.0255C45.0244 25.5375 45.573 25.7946 46.2479 25.7946C47.0402 25.7946 47.6569 25.4629 48.0979 24.8047C48.5399 24.1444 48.761 23.2739 48.761 22.1923Z" fill="#FFFFFF" fill-opacity="1.000000" fill-rule="nonzero"/>
		<path d="M61.7939 22.109C61.7939 23.85 61.3568 25.2261 60.4816 26.2362C59.6973 27.1355 58.7244 27.5846 57.5621 27.5846C56.308 27.5846 55.4062 27.1013 54.8586 26.1327L54.8586 31.5038L52.755 31.5038L52.755 20.4812C52.755 19.3878 52.7284 18.2667 52.6771 17.1167L54.5271 17.1167L54.6445 18.7393L54.684 18.7393C55.3845 17.5167 56.4491 16.9055 57.8788 16.9055C58.9947 16.9055 59.9271 17.3823 60.675 18.337C61.419 19.2939 61.7939 20.5505 61.7939 22.109ZM59.6499 22.1923C59.6499 21.1959 59.4417 20.3745 59.0253 19.7271C58.5705 19.054 57.9617 18.7168 57.196 18.7168C56.677 18.7168 56.2054 18.9045 55.7821 19.2748C55.3598 19.6481 55.0845 20.1356 54.9553 20.7394C54.8912 21.021 54.8566 21.2504 54.8566 21.4316L54.8566 23.1395C54.8566 23.8831 55.0688 24.5114 55.4891 25.0255C55.9114 25.5365 56.46 25.7946 57.1368 25.7946C57.9301 25.7946 58.5468 25.4629 58.9868 24.8047C59.4289 24.1444 59.6499 23.2739 59.6499 22.1923Z" fill="#FFFFFF" fill-opacity="1.000000" fill-rule="nonzero"/>
		<path d="M73.9695 23.3711C73.9695 24.5797 73.5788 25.5623 72.8022 26.3207C71.9478 27.1484 70.7549 27.5634 69.2256 27.5634C67.8126 27.5634 66.6799 27.2689 65.8255 26.6791L66.3119 24.7834C67.2344 25.3745 68.2478 25.6688 69.3509 25.6688C70.1441 25.6688 70.7608 25.4747 71.2009 25.0896C71.6419 24.7035 71.8649 24.1871 71.8649 23.5428C71.8649 22.9658 71.6804 22.4825 71.3183 22.0889C70.9542 21.6964 70.3523 21.3304 69.5067 20.9945C67.2078 20.0675 66.0573 18.7117 66.0573 16.9281C66.0573 15.7632 66.4639 14.8096 67.2749 14.0638C68.0859 13.3193 69.1614 12.947 70.4993 12.947C71.6942 12.947 72.6898 13.1721 73.4801 13.6212L72.9522 15.4752C72.2083 15.0399 71.3686 14.8224 70.4293 14.8224C69.6873 14.8224 69.1052 15.0197 68.6888 15.4122C68.3385 15.7632 68.1609 16.1909 68.1609 16.6987C68.1609 17.2588 68.3632 17.7239 68.7658 18.0886C69.115 18.4247 69.7524 18.7905 70.674 19.1831C71.8047 19.676 72.6355 20.2499 73.1673 20.9091C73.7031 21.5684 73.9695 22.3907 73.9695 23.3711Z" fill="#FFFFFF" fill-opacity="1.000000" fill-rule="nonzero"/>
		<path d="M80.9423 18.8237L78.6236 18.8237L78.6236 23.7936C78.6236 25.0576 79.0321 25.6881 79.851 25.6881C80.227 25.6881 80.5387 25.6539 80.7854 25.5825L80.8436 27.3096C80.4292 27.4771 79.8836 27.5613 79.2077 27.5613C78.3769 27.5613 77.7277 27.2871 77.259 26.7388C76.7923 26.1906 76.5575 25.2721 76.5575 23.9792L76.5575 18.8195L75.1762 18.8195L75.1762 17.1127L76.5575 17.1127L76.5575 15.2384L78.6236 14.5642L78.6236 17.1127L80.9423 17.1127L80.9423 18.8237Z" fill="#FFFFFF" fill-opacity="1.000000" fill-rule="nonzero"/>
		<path d="M91.3833 22.1506C91.3833 23.724 90.9669 25.0159 90.1361 26.026C89.2668 27.0662 88.1105 27.5846 86.6689 27.5846C85.2777 27.5846 84.1717 27.0864 83.3468 26.0911C82.522 25.0938 82.1095 23.8372 82.1095 22.3213C82.1095 20.7351 82.5358 19.4358 83.3853 18.4255C84.2368 17.4143 85.3833 16.9087 86.8248 16.9087C88.2141 16.9087 89.33 17.408 90.1746 18.4043C90.9817 19.3707 91.3833 20.6188 91.3833 22.1506ZM89.2027 22.2029C89.2027 21.2653 89.0152 20.4609 88.6393 19.7878C88.1983 18.975 87.5668 18.5685 86.7489 18.5685C85.9062 18.5685 85.26 18.975 84.8199 19.7878C84.443 20.4609 84.2555 21.2791 84.2555 22.2456C84.2555 23.1843 84.443 23.9907 84.8199 24.6617C85.2748 25.4746 85.9092 25.881 86.7311 25.881C87.5352 25.881 88.1657 25.4661 88.6216 24.6415C89.0083 23.9523 89.2027 23.1427 89.2027 22.2029Z" fill="#FFFFFF" fill-opacity="1.000000" fill-rule="nonzero"/>
		<path d="M98.2239 19.1168C98.0157 19.0752 97.7927 19.054 97.5608 19.054C96.8208 19.054 96.2486 19.3547 95.846 19.9607C95.4967 20.494 95.3211 21.1682 95.3211 21.9821L95.3211 27.3531L93.2175 27.3531L93.2175 20.3405C93.2175 19.1616 93.1968 18.0864 93.1563 17.1178L94.9886 17.1178L95.0655 19.0763L95.1237 19.0763C95.3467 18.4032 95.696 17.8602 96.1755 17.4539C96.6442 17.0879 97.1504 16.9055 97.696 16.9055C97.8904 16.9055 98.066 16.9204 98.2219 16.9471L98.2239 19.1168Z" fill="#FFFFFF" fill-opacity="1.000000" fill-rule="nonzero"/>
		<path d="M107.632 21.7507C107.632 22.1582 107.607 22.5017 107.555 22.7822L101.244 22.7822C101.268 23.7936 101.574 24.568 102.16 25.1013C102.692 25.5771 103.379 25.816 104.224 25.816C105.158 25.816 106.011 25.656 106.777 25.3329L107.107 26.9105C106.211 27.333 105.153 27.5431 103.933 27.5431C102.465 27.5431 101.312 27.0759 100.473 26.1436C99.6368 25.2102 99.2174 23.9557 99.2174 22.3844C99.2174 20.8419 99.6072 19.5565 100.388 18.5314C101.205 17.4369 102.309 16.8896 103.698 16.8896C105.062 16.8896 106.096 17.4369 106.797 18.5314C107.353 19.3986 107.632 20.4739 107.632 21.7507ZM105.626 21.1609C105.641 20.4856 105.503 19.9042 105.217 19.4125C104.853 18.7788 104.293 18.4631 103.542 18.4631C102.854 18.4631 102.294 18.7714 101.868 19.39C101.517 19.8818 101.309 20.4728 101.245 21.1587L105.626 21.1609Z" fill="#FFFFFF" fill-opacity="1.000000" fill-rule="nonzero"/>
		<path d="M35.4765 7.79248L34.3755 7.79248L33.7732 5.77869L31.6786 5.77869L31.1039 7.79248L30.0324 7.79248L32.1083 0.935303L33.3898 0.935303L35.4765 7.79248ZM33.5919 4.93372L33.0468 3.14307C32.9896 2.95959 32.8841 2.53296 32.7215 1.85156L32.7018 1.85156C32.6347 2.14612 32.5391 2.57385 32.3952 3.14307L31.8599 4.93372L33.5919 4.93372Z" fill="#FFFFFF" fill-opacity="1.000000" fill-rule="nonzero"/>
		<path d="M40.6674 2.84839L38.9069 7.79236L37.9024 7.79236L36.1991 2.84839L37.309 2.84839L38.1035 5.46289C38.2376 5.90015 38.3519 6.31738 38.4377 6.71362L38.4662 6.71362C38.5431 6.35828 38.6575 5.94104 38.8004 5.46289L39.5851 2.84839L40.6674 2.84839Z" fill="#FFFFFF" fill-opacity="1.000000" fill-rule="nonzero"/>
		<path d="M44.4151 7.79248L44.3382 7.22327L44.3096 7.22327C43.9942 7.6814 43.5348 7.90466 42.9513 7.90466C42.1193 7.90466 41.5259 7.28406 41.5259 6.44958C41.5259 5.22925 42.5205 4.59814 44.2426 4.59814L44.2426 4.50696C44.2426 3.85596 43.9173 3.52991 43.2766 3.52991C42.8172 3.52991 42.4151 3.65259 42.0622 3.89685L41.8522 3.17456C42.283 2.8894 42.8182 2.74683 43.4501 2.74683C44.6645 2.74683 45.2776 3.42822 45.2776 4.79211L45.2776 6.61316C45.2776 7.11206 45.2973 7.4989 45.3446 7.79358L44.4151 7.79248ZM44.2712 5.32996C43.1228 5.32996 42.5491 5.62561 42.5491 6.3269C42.5491 6.84583 42.8458 7.09949 43.2569 7.09949C43.7832 7.09949 44.2712 6.67285 44.2712 6.09314L44.2712 5.32996Z" fill="#FFFFFF" fill-opacity="1.000000" fill-rule="nonzero"/>
		<path d="M47.5783 2.03394C47.2342 2.03394 46.9661 1.74878 46.9661 1.37244C46.9661 0.996094 47.2431 0.721436 47.598 0.721436C47.9518 0.721436 48.2387 0.996094 48.2288 1.37244C48.2288 1.76978 47.9617 2.03394 47.5783 2.03394ZM48.1145 7.79248L47.0815 7.79248L47.0815 2.84851L48.1145 2.84851L48.1145 7.79248Z" fill="#FFFFFF" fill-opacity="1.000000" fill-rule="nonzero"/>
		<path d="M50.9829 7.79236L49.9499 7.79236L49.9499 0.579834L50.9829 0.579834L50.9829 7.79236Z" fill="#FFFFFF" fill-opacity="1.000000" fill-rule="nonzero"/>
		<path d="M55.3734 7.79236L55.2965 7.22302L55.2679 7.22302C54.9524 7.68115 54.4931 7.90454 53.9095 7.90454C53.0776 7.90454 52.4842 7.28381 52.4842 6.44934C52.4842 5.22913 53.4788 4.59802 55.2008 4.59802L55.2008 4.50684C55.2008 3.85583 54.8755 3.52979 54.2348 3.52979C53.7755 3.52979 53.3733 3.65247 53.0204 3.89673L52.8095 3.17334C53.2402 2.88818 53.7755 2.74561 54.4073 2.74561C55.6217 2.74561 56.2349 3.427 56.2349 4.79089L56.2349 6.61194C56.2349 7.11084 56.2556 7.49768 56.3009 7.79236L55.3734 7.79236ZM55.2294 5.32971C54.0811 5.32971 53.5074 5.62537 53.5074 6.32678C53.5074 6.8457 53.8041 7.09937 54.2151 7.09937C54.7415 7.09937 55.2294 6.67273 55.2294 6.0929L55.2294 5.32971Z" fill="#FFFFFF" fill-opacity="1.000000" fill-rule="nonzero"/>
		<path d="M60.4202 7.90454C59.7608 7.90454 59.2738 7.60901 58.9584 7.02917L58.9377 7.02917L58.8785 7.79236L57.9983 7.79236C58.0269 7.39612 58.0367 6.94751 58.0367 6.45996L58.0367 0.579834L59.0708 0.579834L59.0708 3.57178L59.0905 3.57178C59.397 3.02246 59.8929 2.7478 60.573 2.7478C61.6928 2.7478 62.4774 3.76575 62.4774 5.25024C62.4774 6.78491 61.606 7.90454 60.4202 7.90454ZM60.2103 3.6106C59.6159 3.6106 59.0717 4.15991 59.0717 4.9231L59.0717 5.78796C59.0717 6.46936 59.5607 7.02917 60.1925 7.02917C60.9663 7.02917 61.4266 6.35828 61.4266 5.29004C61.4256 4.29309 60.9466 3.6106 60.2103 3.6106Z" fill="#FFFFFF" fill-opacity="1.000000" fill-rule="nonzero"/>
		<path d="M65.0373 7.79236L64.0053 7.79236L64.0053 0.579834L65.0373 0.579834L65.0373 7.79236Z" fill="#FFFFFF" fill-opacity="1.000000" fill-rule="nonzero"/>
		<path d="M70.6609 5.58472L67.5598 5.58472C67.5805 6.52087 68.1621 7.04919 69.0236 7.04919C69.4829 7.04919 69.9038 6.96741 70.2764 6.81543L70.4371 7.57861C69.9975 7.78198 69.481 7.88367 68.8787 7.88367C67.4238 7.88367 66.5632 6.90662 66.5632 5.39172C66.5632 3.87585 67.4445 2.73633 68.7624 2.73633C69.9482 2.73633 70.6954 3.67249 70.6954 5.08667C70.6993 5.27954 70.6905 5.45264 70.6609 5.58472ZM69.7136 4.80151C69.7136 4.03833 69.3499 3.49951 68.6894 3.49951C68.096 3.49951 67.6288 4.04883 67.5598 4.80151L69.7136 4.80151Z" fill="#FFFFFF" fill-opacity="1.000000" fill-rule="nonzero"/>
		<path d="M76.9222 7.90466C75.5638 7.90466 74.6836 6.82593 74.6836 5.36133C74.6836 3.83496 75.5826 2.74683 77 2.74683C78.3377 2.74683 79.2386 3.77417 79.2386 5.28064C79.2386 6.82593 78.3101 7.90466 76.9222 7.90466ZM76.9616 3.5498C76.2154 3.5498 75.7373 4.29211 75.7373 5.32996C75.7373 6.3479 76.2253 7.09009 76.9517 7.09009C77.6782 7.09009 78.1652 6.29651 78.1652 5.30896C78.1662 4.30261 77.6881 3.5498 76.9616 3.5498Z" fill="#FFFFFF" fill-opacity="1.000000" fill-rule="nonzero"/>
		<path d="M84.7922 7.79236L83.7601 7.79236L83.7601 4.95337C83.7601 4.0791 83.4447 3.64087 82.8227 3.64087C82.2106 3.64087 81.7887 4.20068 81.7887 4.85168L81.7887 7.79236L80.7567 7.79236L80.7567 4.26147C80.7567 3.82434 80.7458 3.35571 80.7182 2.84729L81.627 2.84729L81.6753 3.61047L81.7039 3.61047C81.9799 3.08215 82.5457 2.74561 83.1766 2.74561C84.1515 2.74561 84.7922 3.53918 84.7922 4.83081L84.7922 7.79236Z" fill="#FFFFFF" fill-opacity="1.000000" fill-rule="nonzero"/>
		<path d="M91.5513 3.67249L90.4147 3.67249L90.4147 6.07324C90.4147 6.68433 90.6148 6.9895 91.016 6.9895C91.1984 6.9895 91.3521 6.96851 91.4754 6.93811L91.5039 7.77258C91.3029 7.85437 91.0338 7.89526 90.7016 7.89526C89.8873 7.89526 89.4014 7.41711 89.4014 6.16541L89.4014 3.67249L88.7232 3.67249L88.7232 2.84851L89.4014 2.84851L89.4014 1.94275L90.4147 1.6167L90.4147 2.84741L91.5513 2.84741L91.5513 3.67249Z" fill="#FFFFFF" fill-opacity="1.000000" fill-rule="nonzero"/>
		<path d="M97.022 7.79236L95.9879 7.79236L95.9879 4.97449C95.9879 4.08972 95.6725 3.64209 95.0505 3.64209C94.5153 3.64209 94.0185 4.02893 94.0185 4.81201L94.0185 7.79236L92.9845 7.79236L92.9845 0.579834L94.0185 0.579834L94.0185 3.5498L94.0382 3.5498C94.3635 3.01099 94.8327 2.74573 95.435 2.74573C96.4197 2.74573 97.022 3.5592 97.022 4.85181L97.022 7.79236Z" fill="#FFFFFF" fill-opacity="1.000000" fill-rule="nonzero"/>
		<path d="M102.301 5.58472L99.2004 5.58472C99.2202 6.52087 99.8017 7.04919 100.663 7.04919C101.124 7.04919 101.544 6.96741 101.916 6.81543L102.078 7.57861C101.638 7.78198 101.121 7.88367 100.518 7.88367C99.0634 7.88367 98.2029 6.90662 98.2029 5.39172C98.2029 3.87585 99.0841 2.73633 100.402 2.73633C101.588 2.73633 102.335 3.67249 102.335 5.08667C102.339 5.27954 102.329 5.45264 102.301 5.58472ZM101.353 4.80151C101.353 4.03833 100.991 3.49951 100.33 3.49951C99.7357 3.49951 99.2684 4.04883 99.2004 4.80151L101.353 4.80151Z" fill="#FFFFFF" fill-opacity="1.000000" fill-rule="nonzero"/>
	</g>
</svg>
